<svg width="1818.4523" height="2360.1191" xmlns="http://www.w3.org/2000/svg" version="1.1" xmlns:xlink="http://www.w3.org/1999/xlink" >

    <path d="M786.2 303.6 L786.60004 303.6 L786.60004 303.6 L786.60004 304.2 L786.2 304.4 L786.2 304.59998 L785.80005 305.40002 L785.4 305.40002 L785.4 305.6 L785.0 306.2 L784.4 307.0 L784.4 307.6 L783.6 308.4 L783.0 308.8 L783.0 309.4 L782.60004 309.59998 L782.2 310.40002 L781.8 311.2 L780.80005 312.0 L780.0 312.80002 L779.0 313.8 L777.2 316.4 L775.0 319.2 L774.0 320.80002 L772.60004 321.4 L768.2 325.6 L765.4 329.0 L764.0 330.40002 L762.60004 331.8 L755.0 339.19998 L750.80005 344.0 L747.60004 347.2 L745.0 349.59998 L742.60004 352.40002 L740.4 354.19998 L739.80005 354.59998 L735.80005 359.0 L733.6 360.80002 L732.2 361.8 L731.60004 362.59998 L728.0 366.19998 L726.2 367.40002 L715.4 378.80002 L714.4 380.0 L712.60004 381.4 L712.2 382.40002 L711.2 383.0 L710.80005 383.6 L707.2 387.2 L706.8 387.40002 L706.60004 387.8 L706.2 388.4 L704.80005 389.59998 L704.4 390.0 L704.0 390.6 L702.60004 392.0 L701.8 392.40002 L701.2 392.8 L701.2 393.0 L700.80005 393.4 L700.80005 393.80002 L699.4 395.2 L699.4 394.19998 L699.0 394.0 L698.6 392.8 L698.6 392.8" stroke="rgb(25,25,25)" stroke-width="1" fill="none" stroke-linejoin="round" />

</svg>
