<svg width="1818.4523" height="2360.1191" xmlns="http://www.w3.org/2000/svg" version="1.1" xmlns:xlink="http://www.w3.org/1999/xlink" >

    <path d="M610.80005 390.40002 L611.0 390.80002 L611.2 391.0 L611.8 391.19998 L612.4 391.4 L612.8 391.8 L613.4 392.0 L614.0 392.0 L614.6 392.0 L615.2 391.8 L615.80005 391.19998 L616.4 390.80002 L617.4 390.40002 L620.0 388.4 L620.60004 387.8 L622.2 386.4 L622.8 385.80002 L623.4 385.2 L624.19995 384.19998 L625.0 383.6 L625.60004 382.59998 L626.4 382.0 L632.2 376.0 L635.0 372.59998 L637.4 370.80002 L643.0 365.80002 L645.80005 363.0 L649.80005 359.59998 L655.4 354.59998 L657.60004 352.40002 L660.0 350.2 L660.80005 349.0 L663.0 346.4 L663.6 345.80002 L669.0 340.2 L670.80005 337.40002 L671.8 336.0 L676.8 330.80002 L680.4 327.0 L681.2 326.4 L681.8 325.80002 L683.2 325.0 L684.0 323.80002 L687.2 320.80002 L692.2 316.8 L693.6 315.2 L694.4 314.59998 L695.80005 313.4 L699.4 310.40002 L701.2 309.4 L701.8 308.8 L702.60004 308.4 L703.0 308.0 L703.6 307.80002 L703.0 307.6 L702.2 307.19998 L702.2 307.19998" stroke="rgb(25,25,25)" stroke-width="1" fill="none" stroke-linejoin="round" />

</svg>
