<svg width="1818.4523" height="2360.1191" xmlns="http://www.w3.org/2000/svg" version="1.1" xmlns:xlink="http://www.w3.org/1999/xlink" >

    <path d="M274.59998 390.6 L274.59998 390.6 L274.59998 390.6 L274.4 390.6 L274.4 390.80002 L274.59998 390.80002 L275.0 391.19998 L275.40002 391.4 L276.2 392.0 L277.0 392.0 L277.80002 392.0 L278.6 392.2 L279.2 392.0 L283.8 392.0 L285.2 391.8 L287.6 391.8 L288.4 391.4 L292.80002 391.4 L293.4 391.8 L296.2 391.8 L297.0 392.0 L299.59998 392.0 L300.6 392.2 L302.0 392.0 L305.40002 392.2 L306.2 392.40002 L306.8 392.40002 L307.19998 392.40002 L307.80002 392.40002 L308.6 392.40002 L309.2 392.59998 L310.40002 392.59998 L311.0 392.40002 L313.6 392.59998 L315.40002 392.40002 L316.4 392.40002 L317.6 392.2 L320.2 392.2 L329.0 390.80002 L330.2 390.80002 L331.0 390.80002 L335.80002 390.80002 L337.40002 391.0 L337.59998 391.0 L338.4 391.19998 L338.80002 391.4 L339.4 391.4 L340.40002 391.8 L344.59998 391.8 L347.0 391.8 L347.8 391.8 L349.59998 391.8 L351.0 392.2 L352.0 392.2 L353.0 392.2 L354.59998 392.2 L355.6 392.2 L356.0 392.0 L357.40002 392.0 L358.0 391.8 L359.0 391.8 L362.59998 391.0 L363.80002 390.80002 L365.40002 390.80002 L365.40002 390.80002 L365.6 390.80002 L365.6 390.80002 L365.6 390.40002 L365.80002 389.4 L365.80002 389.4" stroke="rgb(25,25,25)" stroke-width="1" fill="none" stroke-linejoin="round" />

</svg>
