<svg width="1818.4523" height="2360.1191" xmlns="http://www.w3.org/2000/svg" version="1.1" xmlns:xlink="http://www.w3.org/1999/xlink" >

    <path d="M192.6 557.4 L192.8 557.2 L193.0 557.2 L193.0 557.0 L193.4 557.0 L193.4 557.2 L193.6 557.4 L193.6 560.0 L194.2 562.4 L194.40001 564.0 L194.40001 567.0 L194.59999 568.4 L194.59999 588.0 L194.40001 592.4 L194.40001 594.0 L194.59999 598.0 L194.59999 600.60004 L195.0 605.0 L195.20001 615.2 L194.59999 629.39996 L194.40001 632.0 L194.40001 636.8 L194.40001 640.0 L194.40001 649.4 L193.79999 658.6 L193.6 680.4 L192.8 684.0 L192.8 700.0 L192.8 704.4 L192.2 706.8 L192.2 731.8 L192.6 732.2 L192.0 731.2 L192.0 730.4 L192.6 728.6 L192.8 724.4 L192.8 724.4" stroke="rgb(25,25,25)" stroke-width="1" fill="none" stroke-linejoin="round" />

    <path d="M192.6 561.8 L194.40001 561.0 L195.20001 561.0 L195.40001 561.0 L196.20001 561.4 L199.40001 562.4 L201.0 562.8 L202.2 562.8 L218.6 562.4 L228.0 562.2 L249.40001 561.4 L258.8 561.0 L263.8 560.80005 L271.2 560.80005 L276.2 560.60004 L279.2 560.2 L288.8 559.39996 L297.80002 559.19995 L311.2 559.0 L325.6 559.0 L333.0 558.6 L344.0 558.4 L345.80002 558.0 L358.0 558.4 L359.0 558.4 L359.0 558.0 L358.80002 557.8 L358.6 557.4 L358.6 557.4" stroke="rgb(25,25,25)" stroke-width="1" fill="none" stroke-linejoin="round" />

    <path d="M357.2 558.4 L357.2 558.8 L357.2 559.0 L357.40002 559.19995 L357.40002 559.6 L357.8 560.4 L357.8 560.80005 L358.4 562.4 L358.4 562.8 L358.6 564.0 L358.80002 566.4 L358.80002 568.8 L359.0 576.0 L358.80002 582.4 L359.0 587.8 L359.0 590.0 L359.59998 597.6 L360.0 607.8 L359.59998 614.39996 L359.59998 617.4 L359.4 632.6 L359.19998 637.6 L359.0 640.80005 L358.80002 649.80005 L359.4 658.2 L359.4 677.60004 L359.4 682.60004 L359.4 684.80005 L359.4 697.60004 L359.59998 700.0 L360.2 704.4 L360.0 706.60004 L360.2 708.0 L360.2 722.2 L360.2 727.2 L359.59998 727.2 L359.4 726.8 L359.19998 726.60004 L359.19998 726.60004" stroke="rgb(25,25,25)" stroke-width="1" fill="none" stroke-linejoin="round" />

    <path d="M197.0 732.60004 L196.4 732.60004 L196.4 732.60004 L196.20001 732.60004 L196.0 732.60004 L196.0 732.2 L196.4 732.60004 L197.8 732.2 L198.4 732.2 L199.2 732.60004 L200.0 732.60004 L200.59999 732.2 L205.20001 732.2 L207.8 731.8 L230.40001 732.2 L233.79999 732.2 L240.40001 732.60004 L243.79999 732.60004 L263.8 732.2 L269.59998 732.2 L277.80002 730.80005 L285.2 730.0 L291.4 729.80005 L298.8 730.0 L305.40002 729.4 L308.4 729.0 L315.40002 729.0 L326.4 728.6 L331.19998 728.6 L333.0 728.6 L350.80002 727.2 L354.4 727.2 L362.59998 727.2 L364.0 727.2 L364.59998 727.2 L366.4 727.2 L366.4 727.2 L366.4 727.2 L366.4 726.8 L366.0 726.8 L365.6 726.2 L365.0 725.80005 L365.0 725.80005" stroke="rgb(25,25,25)" stroke-width="1" fill="none" stroke-linejoin="round" />

</svg>
