<svg width="1818.4523" height="2360.1191" xmlns="http://www.w3.org/2000/svg" version="1.1" xmlns:xlink="http://www.w3.org/1999/xlink" >

    <path d="M531.2 392.40002 L531.0 392.40002 L531.0 392.8 L531.0 392.8 L531.0 393.0 L531.0 393.0 L531.0 393.0 L530.80005 393.6 L529.39996 393.6 L529.0 393.80002 L527.4 393.80002 L527.0 393.6 L526.4 393.6 L525.80005 393.80002 L524.6 393.80002 L521.4 394.19998 L520.2 394.19998 L519.19995 394.19998 L519.0 394.19998 L518.4 394.0 L516.0 394.0 L514.19995 394.0 L513.8 394.0 L505.6 394.0 L504.0 394.19998 L503.6 394.19998 L502.8 394.0 L502.40002 394.0 L501.4 394.0 L500.40002 393.80002 L499.19998 393.80002 L499.0 394.0 L498.80002 393.80002 L498.0 394.0 L497.40002 393.80002 L494.19998 394.0 L492.40002 394.0 L491.8 394.0 L490.6 394.0 L488.6 394.0 L486.0 393.80002 L485.0 394.0 L484.0 393.80002 L481.19998 393.80002 L480.6 393.6 L478.0 393.4 L476.4 393.4 L476.0 393.0 L474.0 392.59998 L472.40002 392.59998 L471.19998 392.40002 L470.40002 392.40002 L469.4 392.40002 L469.0 392.40002 L468.0 392.2 L467.0 392.0 L458.0 392.0 L456.8 392.2 L455.80002 392.2 L455.2 392.0 L454.19998 392.0 L454.0 392.0 L453.80002 392.0 L453.4 391.8 L451.0 391.8 L448.0 391.4 L447.40002 391.19998 L445.80002 391.0 L444.4 391.19998 L444.0 391.19998 L442.0 391.0 L442.2 390.80002 L441.8 390.6 L440.80002 390.40002 L440.80002 390.40002" stroke="rgb(25,25,25)" stroke-width="1" fill="none" stroke-linejoin="round" />

</svg>
