<svg width="1818.4523" height="2360.1191" xmlns="http://www.w3.org/2000/svg" version="1.1" xmlns:xlink="http://www.w3.org/1999/xlink" >

    <path d="M1035.8 387.59998 L1035.8 387.8 L1036.2001 388.0 L1036.2001 388.6 L1036.2001 389.0 L1036.2001 389.0 L1036.2001 389.0 L1036.6001 389.19998 L1036.6001 389.4 L1036.2001 389.59998 L1035.4 389.4 L1035.0 389.0 L1034.4 388.80002 L1033.6 388.0 L1033.0 387.59998 L1032.2 387.0 L1031.8 386.4 L1030.8 385.80002 L1030.4 385.2 L1029.4 384.19998 L1028.6 383.80002 L1028.2 383.0 L1026.6001 381.4 L1025.4 380.2 L1020.80005 376.0 L1019.0 374.59998 L1016.8 372.40002 L1014.4 370.2 L1014.0 369.4 L1012.2 367.59998 L1010.0 365.80002 L1009.0 365.0 L1008.0 363.80002 L1004.0 360.0 L1003.2 359.0 L1001.2 357.0 L998.0 352.8 L996.8 351.8 L996.2 351.19998 L995.4 350.6 L993.2 349.0 L992.60004 347.8 L990.0 345.80002 L989.0 345.2 L988.6 344.4 L987.2 343.0 L984.0 340.80002 L983.6 340.6 L983.0 340.2 L982.60004 339.4 L980.80005 338.4 L980.0 337.40002 L979.4 337.2 L978.6 336.4 L976.2 334.59998 L974.0 333.0 L973.6 332.59998 L973.0 332.2 L972.2 331.8 L971.8 330.80002 L970.4 329.4 L969.80005 329.0 L968.6 327.8 L967.60004 327.40002 L966.2 326.0 L965.80005 325.40002 L964.0 323.80002 L963.2 323.0 L962.60004 322.40002 L962.2 321.4 L961.60004 320.80002 L960.80005 320.6 L960.4 320.0 L960.0 319.4 L958.6 317.6 L958.2 317.0 L956.2 315.40002 L955.4 314.2 L954.4 313.4 L954.0 312.80002 L953.6 312.19998 L953.2 312.0 L953.0 311.4 L952.60004 311.2 L952.60004 310.6 L952.2 310.40002 L951.8 310.2 L951.2 310.0 L951.2 310.0" stroke="rgb(25,25,25)" stroke-width="1" fill="none" stroke-linejoin="round" />

</svg>
