<svg width="1818.4523" height="2360.1191" xmlns="http://www.w3.org/2000/svg" version="1.1" xmlns:xlink="http://www.w3.org/1999/xlink" >

    <path d="M107.200005 306.2 L107.200005 306.2 L107.200005 306.2 L107.200005 306.2 L107.600006 306.2 L107.600006 306.4 L107.600006 306.8 L107.600006 306.8 L108.0 307.0 L108.0 307.0 L108.0 307.19998 L108.0 307.6 L108.0 307.80002 L108.0 308.0 L108.4 308.6 L108.0 309.2 L108.0 309.59998 L108.0 310.2 L108.4 313.0 L108.0 313.8 L108.4 315.8 L108.4 316.2 L108.4 317.80002 L108.4 318.8 L108.8 320.40002 L108.8 321.0 L108.8 322.2 L108.8 322.40002 L108.8 324.0 L109.2 325.0 L109.2 325.80002 L109.2 328.0 L109.2 329.4 L109.2 335.80002 L108.8 337.0 L108.8 338.0 L109.2 339.0 L108.8 340.40002 L109.2 341.4 L109.2 345.0 L109.6 347.0 L109.2 347.8 L109.2 349.0 L109.2 351.4 L109.2 352.40002 L109.2 353.4 L109.2 355.0 L109.2 356.4 L109.2 358.6 L109.2 360.0 L109.2 361.19998 L109.2 363.6 L109.2 364.4 L109.2 367.40002 L109.2 368.0 L109.2 369.4 L109.2 370.2 L109.2 370.80002 L109.2 371.19998 L109.2 372.0 L109.2 372.8 L109.2 374.0 L109.2 375.80002 L109.6 376.4 L109.6 379.59998 L109.6 380.6 L109.6 382.0 L109.2 384.4 L109.6 385.40002 L109.2 386.8 L109.2 387.40002 L108.8 387.8 L108.8 389.4 L108.8 390.2 L108.8 391.19998 L108.8 393.6 L108.8 394.4 L108.8 395.80002 L108.8 395.80002 L108.8 395.80002 L108.8 395.6 L108.4 395.0 L108.4 394.0 L108.0 390.80002 L108.0 390.80002" stroke="rgb(25,25,25)" stroke-width="1" fill="none" stroke-linejoin="round" />

</svg>
