<svg width="1818.4523" height="2360.1191" xmlns="http://www.w3.org/2000/svg" version="1.1" xmlns:xlink="http://www.w3.org/1999/xlink" >

        <path d="M190.59999 392.40002 L191.0 392.59998 L191.20001 392.8 L191.20001 392.8 L191.20001 392.8 L191.4 392.8 L191.8 392.8 L192.0 392.8 L192.0 392.8 L192.0 392.8 L192.6 392.8 L192.8 392.40002 L192.8 391.8 L193.0 391.19998 L193.4 390.80002 L193.6 390.2 L193.6 389.4 L193.6 389.0 L193.79999 388.0 L193.79999 387.59998 L194.40001 387.40002 L194.40001 386.4 L194.40001 386.0 L195.20001 382.59998 L195.40001 382.0 L195.40001 381.4 L195.40001 380.80002 L195.40001 380.2 L195.8 379.19998 L195.8 377.2 L196.0 376.4 L196.0 375.80002 L196.20001 375.2 L196.20001 374.59998 L196.20001 374.0 L196.20001 372.59998 L196.4 371.19998 L196.4 369.19998 L196.8 367.40002 L197.0 366.0 L197.2 365.6 L197.2 364.59998 L197.6 364.0 L198.0 363.4 L198.0 361.8 L198.4 360.80002 L198.4 359.4 L198.6 358.6 L198.6 355.80002 L198.6 354.4 L198.6 354.0 L198.6 351.0 L198.4 349.0 L198.4 348.0 L198.6 347.2 L198.6 346.19998 L198.6 344.19998 L198.6 343.6 L198.6 342.40002 L198.6 341.4 L198.6 340.6 L198.6 338.80002 L198.4 336.8 L198.6 335.80002 L198.6 333.4 L198.6 332.0 L198.79999 331.19998 L198.79999 329.59998 L199.2 328.80002 L199.2 327.59998 L199.40001 326.8 L199.2 326.19998 L199.2 324.59998 L198.79999 323.80002 L198.79999 322.59998 L198.79999 321.4 L198.79999 320.80002 L198.6 320.40002 L198.6 319.4 L198.6 318.6 L198.79999 318.0 L198.6 317.19998 L198.6 316.2 L198.4 316.0 L198.4 315.40002 L197.8 313.8 L197.8 313.4 L197.8 311.2 L197.8 310.40002 L197.6 309.59998 L197.6 309.4 L197.2 309.2 L197.2 308.4 L197.0 307.6 L197.0 307.80002 L197.0 307.80002" stroke="rgb(25,25,25)" stroke-width="1" fill="none" stroke-linejoin="round" />

</svg>
