<svg width="1818.4523" height="2360.1191" xmlns="http://www.w3.org/2000/svg" version="1.1" xmlns:xlink="http://www.w3.org/1999/xlink" >

    <path d="M866.8 306.0 L866.8 306.2 L867.2 306.4 L867.2 307.0 L867.2 307.0 L867.60004 307.0 L868.0 307.80002 L869.0 308.6 L869.4 309.2 L869.80005 309.4 L870.0 310.2 L870.4 310.6 L870.80005 311.4 L871.2 312.19998 L872.60004 313.6 L875.4 316.8 L877.60004 319.2 L879.4 321.8 L881.8 324.19998 L883.0 325.40002 L884.0 326.4 L889.0 332.2 L891.8 335.6 L893.0 336.8 L895.80005 339.0 L897.2 340.6 L900.0 344.0 L904.0 347.40002 L906.2 349.0 L907.2 350.0 L909.80005 352.8 L913.2 356.19998 L915.4 358.0 L918.0 360.2 L920.4 362.8 L923.2 365.80002 L924.80005 367.40002 L926.8 369.19998 L927.60004 370.6 L929.4 372.8 L932.60004 375.80002 L933.6 376.4 L934.4 377.40002 L935.0 377.59998 L935.4 378.4 L936.2 379.0 L936.8 379.4 L944.80005 385.80002 L945.4 386.19998 L946.60004 386.8 L948.0 387.40002 L948.6 387.59998 L949.4 388.0 L949.80005 388.6 L951.60004 389.59998 L952.2 390.2 L952.2 390.6 L953.0 390.80002 L952.60004 390.6 L952.2 390.6 L952.2 390.6" stroke="rgb(25,25,25)" stroke-width="1" fill="none" stroke-linejoin="round" />

</svg>
