<svg width="1818.4523" height="2360.1191" xmlns="http://www.w3.org/2000/svg" version="1.1" xmlns:xlink="http://www.w3.org/1999/xlink" >

    <path d="M1119.4 391.0 L1119.4 391.0 L1119.8 391.0 L1120.0 391.19998 L1120.4 391.19998 L1120.4 391.8 L1120.4 391.8 L1120.4 391.8 L1120.4 392.0 L1120.8 392.2 L1120.8 392.40002 L1121.2001 392.40002 L1121.2001 392.40002 L1121.2001 392.40002 L1121.2001 392.2 L1121.2001 389.59998 L1121.2001 388.6 L1121.2001 388.0 L1120.8 387.40002 L1120.8 386.19998 L1120.8 385.2 L1120.8 381.0 L1120.4 379.59998 L1120.4 377.8 L1120.8 376.4 L1120.4 375.6 L1120.4 374.59998 L1120.4 367.2 L1120.0 364.59998 L1120.0 363.4 L1120.0 360.2 L1119.8 359.0 L1119.8 356.4 L1119.8 355.6 L1119.0 350.80002 L1119.4 349.59998 L1119.4 347.8 L1119.4 345.80002 L1119.4 344.19998 L1119.0 343.4 L1119.0 337.8 L1119.4 336.8 L1119.4 335.80002 L1119.8 334.0 L1119.8 331.8 L1119.4 330.80002 L1119.8 330.2 L1119.8 329.0 L1119.4 328.0 L1119.4 327.0 L1119.4 325.40002 L1119.0 324.19998 L1119.0 322.8 L1119.0 321.8 L1119.0 320.80002 L1118.6 319.4 L1119.0 317.80002 L1118.6 317.19998 L1118.6 316.2 L1118.6 315.2 L1118.6 314.2 L1119.0 313.4 L1118.6 312.19998 L1118.6 311.2 L1118.6 310.6 L1118.6 309.59998 L1118.6 308.6 L1118.6 308.0 L1119.0 307.80002 L1119.0 307.80002 L1119.0 307.80002 L1119.4 307.80002 L1120.0 308.0 L1120.8 308.4 L1124.8 308.4 L1126.2001 308.6 L1132.6 308.6 L1133.0 308.4 L1135.0 308.8 L1148.6 309.2 L1153.6 309.4 L1158.6 309.4 L1162.6 309.59998 L1164.8 310.0 L1166.8 310.0 L1168.0 310.2 L1169.0 310.2 L1170.4 309.59998 L1173.0 310.0 L1176.6001 310.0 L1178.6 310.2 L1180.8 310.0 L1182.6 310.6 L1183.6 310.40002 L1185.0 310.40002 L1186.2001 310.40002 L1187.6 310.6 L1190.4 310.40002 L1194.0 310.40002 L1196.6001 310.40002 L1199.0 310.2 L1204.8 310.2 L1205.8 310.40002 L1208.6 310.40002 L1212.2 310.40002 L1215.4 310.40002 L1222.2 310.0 L1226.2001 309.4 L1226.8 309.59998 L1229.4 309.59998 L1230.8 309.4 L1240.8 309.2 L1243.0 309.4 L1245.8 308.8 L1252.6 308.6 L1258.6 308.4 L1262.2 308.6 L1263.6 307.80002 L1271.2001 307.80002 L1273.0 307.80002 L1282.4 307.6 L1286.2 307.6 L1287.4 307.6 L1288.2001 307.80002 L1291.7999 307.80002 L1295.8 307.80002 L1296.6001 307.6 L1301.7999 307.19998 L1303.8 307.19998 L1305.0 307.0 L1314.4 307.19998 L1321.6001 306.2 L1330.3999 306.2 L1336.0 306.4 L1338.0 306.2 L1343.0 306.0 L1348.2001 306.2 L1350.3999 306.2 L1356.2 306.2 L1364.6001 306.2 L1365.3999 306.2 L1366.6001 306.4 L1368.2001 306.2 L1370.2001 306.2 L1370.2001 306.4 L1371.0 306.4 L1371.2 306.4 L1372.2 306.4 L1372.4 306.2 L1372.4 306.2 L1372.4 306.2 L1372.6 307.0 L1372.4 306.2 L1372.4 307.0 L1372.6 307.6 L1372.6 308.4 L1373.0 309.2 L1373.0 310.40002 L1373.6 315.0 L1373.8 317.80002 L1373.8 330.40002 L1373.8 333.0 L1373.8 334.4 L1373.6 337.8 L1373.8 340.80002 L1373.6 342.0 L1373.6 343.4 L1373.8 344.59998 L1373.8 346.0 L1373.2001 349.0 L1373.2001 350.6 L1373.6 352.0 L1373.6 353.4 L1373.8 354.59998 L1373.8 355.80002 L1373.8 358.0 L1373.8 359.4 L1373.8 362.59998 L1373.8 363.80002 L1373.8 364.59998 L1373.8 366.0 L1373.8 367.40002 L1373.8 368.6 L1373.8 371.8 L1373.8 372.40002 L1373.8 372.8 L1374.0 373.80002 L1373.8 374.4 L1373.8 375.80002 L1374.0 376.19998 L1374.0 377.59998 L1374.4 378.6 L1374.4 380.0 L1374.6001 380.80002 L1374.6001 383.6 L1374.6001 384.4 L1374.6001 386.19998 L1375.0 387.0 L1375.0 389.0 L1375.2001 389.4 L1375.2001 390.6 L1374.6001 390.40002 L1373.8 390.40002 L1373.2001 390.6 L1373.2001 390.2 L1370.3999 389.59998 L1363.8 389.4 L1361.0 389.4 L1360.0 389.19998 L1356.0 389.4 L1354.6001 389.59998 L1353.8 389.59998 L1351.6001 390.0 L1350.8 390.0 L1341.2 390.80002 L1335.0 392.0 L1329.6001 393.0 L1316.2 392.8 L1311.0 392.59998 L1308.8 392.59998 L1306.2 392.40002 L1305.2001 392.59998 L1301.2 392.2 L1289.6001 392.40002 L1286.6001 392.2 L1285.0 392.2 L1283.6 392.0 L1270.0 392.0 L1264.0 392.0 L1254.0 392.40002 L1249.0 392.59998 L1247.6 392.59998 L1246.6001 392.8 L1245.8 392.59998 L1245.4 392.59998 L1244.4 392.40002 L1243.0 392.59998 L1241.8 392.8 L1235.8 393.4 L1231.8 393.6 L1229.4 394.0 L1227.2 394.0 L1224.0 394.0 L1221.2001 394.0 L1212.6 394.0 L1211.6001 394.0 L1210.4 394.0 L1209.0 394.0 L1208.6 394.0 L1208.0 394.0 L1207.6 394.0 L1206.8 393.80002 L1206.2001 393.80002 L1205.4 393.6 L1202.2 393.80002 L1197.2 394.0 L1194.0 393.80002 L1190.4 393.6 L1189.0 393.4 L1186.2001 393.0 L1185.0 392.8 L1183.6 392.59998 L1182.2 392.40002 L1178.6 392.40002 L1177.2 392.40002 L1174.8 392.40002 L1172.2 392.59998 L1169.8 392.59998 L1168.6 392.8 L1167.2 392.59998 L1165.8 392.59998 L1164.4 392.40002 L1162.2 392.40002 L1161.8 392.40002 L1160.4 392.40002 L1159.4 392.2 L1154.0 392.40002 L1153.6 392.40002 L1153.0 392.40002 L1149.4 392.8 L1148.0 392.8 L1147.6 392.59998 L1147.2 392.59998 L1145.0 392.40002 L1144.4 392.40002 L1139.0 392.59998 L1137.6 392.8 L1136.8 392.8 L1134.4 392.59998 L1132.6 392.8 L1130.8 392.8 L1129.8 392.59998 L1129.0 392.59998 L1128.2 392.40002 L1127.6 392.40002 L1126.8 392.40002 L1126.2001 392.2 L1125.0 392.0 L1121.2001 392.0 L1121.2001 392.40002 L1121.2001 392.0 L1120.8 391.8 L1120.8 391.8 L1120.0 392.2 L1120.0 392.2" stroke="rgb(25,25,25)" stroke-width="1" fill="none" stroke-linejoin="round" />

</svg>
