<svg width="1818.4523" height="2360.1191" xmlns="http://www.w3.org/2000/svg" version="1.1" xmlns:xlink="http://www.w3.org/1999/xlink" >

    <path d="M784.0 558.4 L784.0 558.6 L783.6 558.8 L783.6 558.8 L783.6 560.2 L783.6 561.0 L783.6 562.2 L783.6 563.4 L783.6 564.39996 L783.6 567.4 L783.2 568.8 L783.6 572.8 L783.6 579.19995 L783.0 584.0 L783.0 586.0 L782.2 592.6 L781.8 597.2 L781.2 602.4 L780.4 607.4 L780.4 609.6 L779.80005 618.0 L779.0 623.6 L779.0 625.80005 L778.2 628.4 L778.2 637.4 L779.0 644.4 L780.80005 647.2 L782.2 649.0 L783.0 649.4 L784.4 650.0 L787.2 650.80005 L790.0 650.80005 L795.4 650.4 L797.2 650.4 L799.4 650.0 L805.80005 650.4 L819.80005 650.80005 L845.0 651.2 L850.80005 651.60004 L853.2 651.8 L856.2 651.8 L863.2 651.60004 L866.2 651.2 L871.8 651.2 L890.0 650.80005 L893.2 650.80005 L905.80005 649.4 L925.4 649.4 L927.2 649.4 L928.2 649.4 L929.80005 649.4 L933.6 650.0 L935.4 649.80005 L937.2 650.0 L941.2 649.80005 L943.6 649.4 L945.4 649.4 L948.6 648.2 L949.4 648.0 L950.0 647.60004 L951.2 645.4 L951.8 644.0 L952.2 640.80005 L953.0 636.0 L954.0 628.0 L955.0 616.0 L955.4 598.6 L955.80005 589.19995 L956.60004 585.0 L957.2 578.8 L957.2 573.6 L957.2 570.80005 L956.8 565.80005 L956.8 564.0 L956.8 562.2 L956.8 561.8 L956.2 561.2 L955.80005 561.4 L954.4 561.4 L950.0 562.2 L944.4 562.8 L941.8 563.6 L935.0 564.0 L931.8 564.0 L917.60004 565.60004 L907.60004 565.4 L904.0 565.2 L874.0 565.60004 L868.0 564.6 L863.0 564.0 L861.8 563.8 L857.2 562.8 L843.0 562.6 L833.0 562.8 L826.2 564.0 L820.80005 563.6 L817.60004 563.8 L814.0 563.6 L813.0 563.4 L804.4 564.0 L800.4 564.19995 L797.60004 564.0 L793.6 564.0 L789.4 563.8 L785.4 563.6 L782.2 564.39996 L782.2 564.39996" stroke="rgb(25,25,25)" stroke-width="1" fill="none" stroke-linejoin="round" />

</svg>
