<svg width="1818.4523" height="2360.1191" xmlns="http://www.w3.org/2000/svg" version="1.1"
     xmlns:xlink="http://www.w3.org/1999/xlink">

    <!--
        <path d="Mx y Lx y" stroke="color" stroke-width="stroke_width" fill="none" stroke-linejoin="round"/>
    -->

    <path d="M0 0 L100 100" stroke="red" stroke-width="5" fill="none" stroke-linejoin="round"/>

    <path d="M292.0 472.59998 L292.6 472.40002 L293.8 471.0 L294.4 470.6 L295.2 470.40002 L295.40002 470.0 L296.0 469.59998 L296.8 469.0 L297.0 468.4 L298.0 467.0 L298.6 466.4 L299.4 465.80002 L300.2 464.59998 L301.0 464.0 L302.0 462.2 L302.80002 460.80002 L303.6 460.0 L303.8 459.0 L305.40002 457.0 L306.0 456.19998 L307.0 455.2 L307.80002 454.19998 L308.0 453.6 L308.6 452.8 L309.4 452.2 L309.59998 451.0 L311.4 449.4 L313.0 447.2 L314.4 445.2 L316.0 443.0 L316.8 442.40002 L317.80002 440.80002 L318.6 440.0 L320.40002 437.59998 L321.4 435.6 L322.0 434.4 L324.0 431.4 L325.40002 430.0 L325.80002 429.0 L327.0 426.8 L330.80002 422.0 L331.4 420.80002 L332.0 420.0 L333.4 417.59998 L334.4 415.6 L335.40002 413.80002 L335.80002 412.8 L337.40002 411.0 L338.0 410.2 L340.80002 407.0 L341.8 405.80002 L342.40002 404.4 L343.6 403.80002 L344.0 402.8 L344.4 402.40002 L345.0 402.2 L345.40002 401.4 L345.80002 401.0 L346.19998 400.40002 L346.8 400.0 L346.8 400.0"
          stroke="rgb(0,0,0)" stroke-width="5" fill="none" stroke-linejoin="round"/>

    <path d="M459.0 481.19998 L459.0 481.8 L458.80002 482.0 L459.0 482.0 L459.0 482.0 L459.19998 482.0 L459.4 482.0 L460.0 482.40002 L460.40002 482.40002 L460.80002 482.2 L461.19998 481.4 L463.0 480.0 L464.4 479.0 L465.6 478.4 L467.8 476.0 L474.59998 468.80002 L475.6 467.8 L477.40002 465.6 L481.8 459.19998 L487.2 453.0 L489.0 450.6 L493.0 445.0 L493.80002 444.0 L497.8 439.0 L501.4 434.4 L504.19998 431.8 L505.80002 429.0 L507.2 427.2 L511.4 422.2 L512.2 421.19998 L513.6 419.4 L517.8 415.0 L519.19995 413.6 L521.2 411.8 L524.0 408.6 L526.2 406.0 L530.80005 401.8 L532.4 400.2 L539.0 393.4 L539.0 392.8 L538.8 392.40002 L538.0 392.2 L536.8 392.0 L536.8 392.0"
          stroke="rgb(25,25,25)" stroke-width="5" fill="none" stroke-linejoin="round"/>

</svg>
