<svg width="1818.4523" height="2360.1191" xmlns="http://www.w3.org/2000/svg" version="1.1" xmlns:xlink="http://www.w3.org/1999/xlink" >

    <path d="M1211.8 555.4 L1211.8 555.4 L1211.8 555.80005 L1211.8 556.0 L1211.8 556.4 L1211.6001 557.0 L1211.2001 557.4 L1210.8 558.4 L1210.0 559.6 L1209.0 560.60004 L1208.2 561.0 L1206.2001 563.8 L1202.6 567.2 L1196.8 572.4 L1189.4 580.60004 L1181.6001 587.4 L1168.0 599.0 L1155.0 610.4 L1146.2001 618.0 L1139.0 624.19995 L1136.8 625.80005 L1130.4 632.2 L1126.8 635.60004 L1125.4 636.8 L1120.4 643.0 L1119.0 644.0 L1118.6 644.4 L1118.6 644.0 L1118.2 643.6 L1119.0 642.60004 L1119.0 642.60004" stroke="rgb(25,25,25)" stroke-width="1" fill="none" stroke-linejoin="round" />

    <path d="M1205.8 560.2 L1205.8 560.2 L1205.8 560.4 L1206.2001 560.4 L1206.8 560.4 L1207.2 560.60004 L1208.0 560.4 L1208.6 560.60004 L1210.0 560.4 L1218.6 560.60004 L1223.2 560.80005 L1233.6 560.60004 L1239.4 560.4 L1249.4 559.0 L1256.2001 558.8 L1259.8 558.6 L1273.0 557.6 L1281.2 557.2 L1298.2001 557.4 L1301.0 557.2 L1310.0 557.4 L1313.2001 557.4 L1332.6 557.4 L1339.0 557.4 L1342.4 557.4 L1348.2001 557.0 L1363.2001 557.4 L1368.2001 557.4 L1376.0 557.0 L1381.6001 557.0 L1381.6001 557.4 L1381.0 557.4 L1381.0 557.8 L1380.3999 558.4 L1379.4 559.19995 L1378.2001 560.60004 L1375.2001 563.6 L1373.8 565.4 L1362.2 575.4 L1357.6 579.0 L1355.0 581.2 L1340.0 593.6 L1337.2 595.4 L1333.0 598.8 L1328.8 601.4 L1323.8 605.80005 L1321.6001 607.4 L1316.6001 612.4 L1310.2001 619.19995 L1306.7999 622.6 L1299.4 630.60004 L1296.0 634.19995 L1293.8 637.0 L1292.4 638.8 L1289.6001 641.2 L1289.0 642.2 L1287.4 643.6 L1286.6001 644.4 L1286.0 644.4 L1281.6001 643.2 L1281.6001 643.2" stroke="rgb(25,25,25)" stroke-width="1" fill="none" stroke-linejoin="round" />

    <path d="M1114.8 646.8 L1115.4 646.60004 L1116.2001 646.2 L1117.2 645.80005 L1118.6 645.0 L1120.4 644.4 L1121.8 644.0 L1128.0 644.4 L1133.2 644.0 L1136.2001 644.4 L1163.2 644.4 L1172.2 644.4 L1176.8 644.4 L1180.8 644.4 L1190.4 644.4 L1194.8 644.4 L1203.0 644.0 L1213.0 643.6 L1217.6 643.6 L1263.0 643.0 L1288.8 643.2 L1293.2001 643.0 L1294.0 643.0 L1295.2001 643.0 L1296.7999 643.6 L1297.4 643.6 L1296.6001 643.0 L1296.0 642.2 L1296.0 642.2" stroke="rgb(25,25,25)" stroke-width="1" fill="none" stroke-linejoin="round" />

</svg>
