<svg width="1818.4523" height="2360.1191" xmlns="http://www.w3.org/2000/svg" version="1.1" xmlns:xlink="http://www.w3.org/1999/xlink" >

    <path d="M530.60004 559.0 L530.60004 559.0 L530.60004 559.19995 L530.80005 559.19995 L530.80005 559.39996 L530.80005 559.6 L531.0 560.0 L531.2 560.2 L531.4 560.60004 L531.8 562.6 L532.0 563.8 L532.0 564.39996 L532.4 567.6 L532.4 570.0 L532.6 573.4 L532.8 581.4 L533.8 597.6 L533.8 605.2 L533.6 610.4 L533.4 613.6 L532.8 622.0 L532.6 640.4 L533.4 646.8 L532.8 664.4 L532.8 669.4 L533.0 671.8 L532.8 677.60004 L532.4 689.0 L532.2 693.0 L532.2 694.4 L532.0 696.2 L531.2 700.0 L531.0 701.2 L531.0 703.2 L530.80005 705.0 L530.4 706.8 L529.6 710.4 L529.19995 712.60004 L528.4 717.60004 L526.4 724.4 L526.4 726.8 L526.2 727.60004 L526.4 728.6 L526.8 729.0 L526.8 729.4 L527.0 729.4 L527.2 729.4 L527.4 729.0 L528.0 728.6 L529.39996 728.2 L530.80005 728.0 L534.6 727.2 L539.0 726.2 L543.4 726.2 L544.6 725.80005 L545.80005 726.2 L549.19995 725.80005 L550.80005 725.80005 L552.4 725.80005 L555.80005 725.80005 L557.4 725.4 L562.6 725.4 L564.39996 725.0 L573.8 726.2 L579.39996 726.2 L582.4 726.2 L597.6 725.4 L600.80005 725.0 L607.2 725.4 L625.4 725.80005 L640.80005 727.60004 L652.2 728.0 L654.4 728.6 L661.8 729.0 L664.0 729.4 L675.80005 729.4 L684.4 730.4 L696.2 731.8 L698.0 731.8 L699.4 731.8 L700.0 731.8 L700.4 731.8 L700.80005 731.2 L700.80005 730.4 L701.2 729.80005 L702.2 725.4 L703.2 714.80005 L703.6 712.2 L702.60004 682.2 L702.2 675.80005 L702.2 668.2 L702.2 665.80005 L703.0 657.60004 L704.0 644.80005 L703.6 624.39996 L703.6 619.39996 L703.2 616.0 L703.2 609.6 L703.6 606.4 L703.0 597.0 L703.0 592.8 L703.0 585.0 L702.60004 577.8 L702.60004 575.60004 L703.0 574.0 L703.0 573.0 L703.2 571.8 L703.0 570.60004 L703.6 569.39996 L703.0 567.4 L703.2 565.80005 L685.0 565.2 L681.8 565.60004 L676.60004 566.0 L673.2 565.80005 L640.0 566.2 L630.0 566.0 L622.4 566.4 L616.8 567.0 L613.8 567.0 L610.80005 567.0 L607.6 566.2 L605.0 567.0 L602.6 565.80005 L600.60004 565.60004 L597.8 565.80005 L595.80005 565.60004 L594.0 565.2 L592.2 565.80005 L588.8 565.80005 L566.8 567.0 L565.4 566.8 L560.2 566.4 L557.4 566.8 L555.2 566.2 L552.8 566.2 L548.6 566.0 L547.8 565.80005 L544.0 565.4 L543.4 565.4 L541.0 565.80005 L539.6 565.4 L533.8 565.60004 L529.0 564.19995 L529.0 564.19995" stroke="rgb(25,25,25)" stroke-width="1" fill="none" stroke-linejoin="round" />

</svg>
