<svg width="1818.4523" height="2360.1191" xmlns="http://www.w3.org/2000/svg" version="1.1" xmlns:xlink="http://www.w3.org/1999/xlink" >
    .
    <path d="M1455.3999 304.4 L1455.8 304.4 L1455.8 304.4 L1456.0 304.4 L1456.0 304.4 L1456.2 305.0 L1456.7999 306.2 L1457.4 307.80002 L1457.4 308.6 L1457.4 310.0 L1457.4 311.0 L1457.6 312.19998 L1457.6 316.0 L1458.0 317.19998 L1457.6 335.40002 L1457.4 337.2 L1457.6 342.40002 L1457.6 343.6 L1458.8 350.2 L1458.8 353.6 L1458.8 359.19998 L1459.4 363.0 L1459.6001 366.19998 L1459.6001 368.6 L1459.6001 371.8 L1459.6001 373.0 L1459.6001 374.0 L1459.6001 375.2 L1459.6001 376.19998 L1459.6001 377.59998 L1459.0 380.40002 L1459.0 381.8 L1458.2001 387.40002 L1458.2001 390.40002 L1458.0 392.59998 L1458.0 394.19998 L1457.6 395.2 L1457.6 395.80002 L1458.0 396.19998 L1458.2001 396.19998 L1458.2001 396.19998 L1458.2001 396.0 L1458.6 395.80002 L1459.6001 395.6 L1460.2001 395.2 L1461.6001 394.59998 L1463.0 394.4 L1464.6001 394.0 L1466.6001 393.6 L1468.2001 392.8 L1472.4 392.40002 L1478.8 391.19998 L1482.6 391.0 L1494.6001 390.6 L1498.6 390.40002 L1499.6001 390.40002 L1502.4 390.0 L1503.8 389.19998 L1506.0 389.59998 L1513.8 390.2 L1515.3999 390.2 L1516.6001 390.40002 L1520.2001 390.40002 L1521.6001 390.6 L1529.0 390.40002 L1531.6001 390.2 L1533.2001 390.40002 L1535.0 390.80002 L1536.2 390.80002 L1538.2001 391.0 L1539.6001 391.0 L1540.8 391.19998 L1541.7999 391.19998 L1542.4 391.4 L1543.0 391.4 L1544.6001 391.4 L1546.0 391.8 L1546.6001 391.19998 L1547.4 391.0 L1548.2001 391.0 L1548.2001 391.0 L1548.2001 391.0 L1548.2001 391.0 L1548.0 390.6 L1547.6 389.4 L1547.4 388.80002 L1547.4 387.40002 L1547.4 386.4 L1546.7999 385.40002 L1546.6001 384.0 L1546.6001 382.40002 L1546.0 380.0 L1546.0 373.80002 L1546.2 372.40002 L1546.0 370.80002 L1546.2 368.0 L1546.2 366.4 L1546.0 365.6 L1546.0 360.2 L1546.0 359.0 L1545.8 356.19998 L1546.0 355.80002 L1545.8 354.0 L1545.2001 351.19998 L1545.2001 346.8 L1545.3999 345.0 L1545.2001 337.40002 L1545.3999 332.40002 L1545.2001 331.4 L1545.2001 330.80002 L1545.0 328.0 L1545.0 327.2 L1544.6001 325.80002 L1544.6001 325.0 L1544.6001 324.0 L1544.6001 321.19998 L1544.4 320.2 L1544.4 315.40002 L1544.0 314.4 L1544.0 313.0 L1544.4 311.8 L1544.4 311.0 L1544.0 310.40002 L1544.0 307.80002 L1544.0 307.80002 L1543.8 308.0 L1543.6 307.80002 L1542.4 308.4 L1541.6001 308.4 L1536.0 308.8 L1529.0 309.4 L1520.2001 309.4 L1517.2 309.4 L1515.3999 309.59998 L1513.6 310.0 L1510.0 310.0 L1508.2001 310.40002 L1505.2001 309.59998 L1500.0 310.0 L1498.8 310.0 L1497.4 311.0 L1495.3999 310.0 L1493.2001 310.0 L1491.7999 310.0 L1490.8 309.59998 L1485.2001 309.59998 L1483.2001 309.59998 L1482.2 309.4 L1481.2 309.4 L1478.2001 309.2 L1476.6001 309.2 L1476.2 309.4 L1475.0 308.8 L1473.8 309.2 L1471.6001 308.8 L1471.0 309.59998 L1470.0 308.8 L1468.0 308.8 L1467.2 309.2 L1466.2 308.8 L1465.2001 308.8 L1463.8 309.2 L1462.6 308.8 L1461.7999 308.8 L1461.2 308.6 L1460.8 308.6 L1460.2001 308.6 L1459.6001 308.6 L1457.4 308.4 L1456.7999 308.0 L1456.0 308.0 L1455.0 307.80002 L1453.8 307.80002 L1452.2 307.80002 L1452.2 307.80002" stroke="rgb(25,25,25)" stroke-width="1" fill="none" stroke-linejoin="round" />

</svg>
